<!-- Generated by IcoMoon.io -->
<svg version="1.1" xmlns="http://www.w3.org/2000/svg" width="25" height="25" viewBox="0 0 25 25">
<title>times-rectangle-o</title>
<path d="M16.697 15l-1.697 1.697c-0.151 0.151-0.384 0.151-0.535 0l-1.965-1.965-1.965 1.965c-0.151 0.151-0.384 0.151-0.535 0l-1.697-1.697c-0.151-0.151-0.151-0.384 0-0.535l1.965-1.965-1.965-1.965c-0.151-0.151-0.151-0.384 0-0.535l1.697-1.697c0.151-0.151 0.384-0.151 0.535 0l1.965 1.965 1.965-1.965c0.151-0.151 0.384-0.151 0.535 0l1.697 1.697c0.151 0.151 0.151 0.384 0 0.535l-1.965 1.965 1.965 1.965c0.151 0.151 0.151 0.384 0 0.535zM5.060 18.452h14.881v-11.905h-14.881v11.905zM22.917 5.431v14.137c0 1.023-0.837 1.86-1.86 1.86h-17.113c-1.023 0-1.86-0.837-1.86-1.86v-14.137c0-1.023 0.837-1.86 1.86-1.86h17.113c1.023 0 1.86 0.837 1.86 1.86z"></path>
</svg>
