<!-- Generated by IcoMoon.io -->
<svg version="1.1" xmlns="http://www.w3.org/2000/svg" width="1024" height="1024" viewBox="0 0 1024 1024">
<title></title>
<g id="icomoon-ignore">
</g>
<path fill="#0077b5" d="M827.357 827.539h-132.685v-207.907c0-49.581-1.008-113.379-69.139-113.379-69.181 0-79.744 53.949-79.744 109.725v211.568h-132.685v-427.539h127.456v58.275h1.715c17.808-33.6 61.117-69.069 125.811-69.069 134.435 0 159.299 88.48 159.299 203.651zM263.248 341.501c-42.707 0-77.021-34.573-77.021-77.091 0-42.483 34.349-77.021 77.021-77.021 42.56 0 77.056 34.531 77.056 77.021 0 42.525-34.531 77.091-77.056 77.091zM329.776 827.539h-133.056v-427.539h133.056zM893.731 64h-763.616c-36.547 0-66.115 28.896-66.115 64.547v766.899c0 35.693 29.568 64.547 66.115 64.547h763.504c36.512 0 66.381-28.861 66.381-64.547v-766.899c0-35.651-29.869-64.547-66.381-64.547z"></path>
</svg>
