<!-- Generated by IcoMoon.io -->
<svg version="1.1" xmlns="http://www.w3.org/2000/svg" width="25" height="25" viewBox="0 0 25 25">
<title>locked</title>
<path d="M3.125 24.219v-12.5h2.344v-3.906c0-3.452 2.798-6.25 6.25-6.25h0.781c3.452 0 6.25 2.798 6.25 6.25v3.906h2.344v12.5h-17.969zM11.519 17.802l-0.581 4.073h2.344l-0.582-4.073c0.57-0.233 0.973-0.791 0.973-1.445 0-0.863-0.7-1.563-1.563-1.563s-1.563 0.7-1.563 1.563c0 0.654 0.402 1.212 0.972 1.445zM16.406 8.203c0-2.373-1.924-4.297-4.297-4.297s-4.297 1.923-4.297 4.297v3.516h8.594v-3.516z"></path>
</svg>
