<!-- Generated by IcoMoon.io -->
<svg version="1.1" xmlns="http://www.w3.org/2000/svg" width="1024" height="1024" viewBox="0 0 1024 1024">
<title></title>
<g id="icomoon-ignore">
</g>
<path fill="#168de2" d="M499.477 308.938c55.316 0 107.312 24.459 145.488 62.737v0.117c0-18.37 12.363-32.212 29.531-32.212h4.369c26.874 0 32.358 25.395 32.358 33.441l0.153 285.755c-1.896 18.727 19.297 28.377 31.034 16.382 45.87-47.165 100.796-242.425-28.536-355.58-120.51-105.465-282.196-88.089-368.208-28.799-91.415 63.062-149.924 202.611-93.079 333.68 61.951 142.949 239.191 185.535 344.54 143.079 53.355-21.561 77.99 50.544 22.59 74.106-83.721 35.703-316.732 32.095-425.543-156.465-73.554-127.302-69.639-351.324 125.406-467.381 149.199-88.758 345.927-64.173 464.516 59.687 123.982 129.499 116.777 371.984-4.187 466.295-54.767 42.821-136.199 1.111-135.655-61.258l-0.577-20.45c-38.151 37.875-88.91 59.96-144.218 59.96-109.325 0-205.476-96.176-205.476-205.447 0-110.351 96.176-207.648 205.501-207.648zM637.038 508.681c-4.135-80.012-63.519-128.146-135.229-128.146h-2.714c-82.79 0-128.713 65.117-128.713 139.039 0 82.843 55.552 135.137 128.363 135.137 81.223 0 134.628-59.503 138.487-129.867z"></path>
</svg>
