<!-- Generated by IcoMoon.io -->
<svg version="1.1" xmlns="http://www.w3.org/2000/svg" width="512" height="512" viewBox="0 0 512 512">
<title>times-rectangle-o</title>
<g id="icomoon-ignore">
</g>
<path d="M466.115 413.236l-106.116-90.254c-10.97-9.873-22.702-14.405-32.179-13.968 25.050-29.342 40.181-67.409 40.181-109.014 0-92.784-75.216-168-168-168s-168 75.216-168 168 75.216 168 168 168c41.605 0 79.672-15.131 109.014-40.182-0.438 9.477 4.095 21.209 13.968 32.179l90.254 106.116c15.453 17.17 40.697 18.617 56.096 3.218s13.953-40.643-3.217-56.096zM200 312c-61.856 0-112-50.144-112-112s50.144-112 112-112 112 50.144 112 112-50.144 112-112 112z"></path>
</svg>
