<!-- Generated by IcoMoon.io -->
<svg version="1.1" xmlns="http://www.w3.org/2000/svg" width="1024" height="1024" viewBox="0 0 1024 1024">
<title></title>
<g id="icomoon-ignore">
</g>
<path fill="#2592e9" d="M512.48 135.92c-208.8 0-378.081 156-378.081 348.36 0 120.639 48.759 212.040 126.201 270.96h-0.201l9.36 121.68v0.159c0 0.681 0 1.239 0.159 1.839v0.24c0.96 5.76 6 10.2 12.039 10.2 2.121 0 3.999-0.6 5.76-1.401l0.441-0.321 115.839-66.96c34.161 7.839 70.68 11.961 108.399 11.961 208.8 0 378.081-155.961 378.081-348.399 0-192.399-169.32-348.36-378.159-348.36zM447.599 60.8c21-2.601 42.441-4.161 64.2-4.161 15.201 0 30 0.801 44.76 2.079l2.28-24.561c-15.6-1.401-31.161-2.16-46.959-2.16-22.8 0-45.399 1.44-67.641 4.359l3.321 24.48zM599.48 64.559c36.6 6.6 71.4 17.439 104.4 31.8l10.080-22.68c-5.28-2.241-10.521-4.479-15.879-6.6-30.48-12-62.040-20.961-94.2-26.841zM966.231 486.8c-0.6 36.6-6.201 72.24-16.2 106.2l23.601 6.999c10.68-36.12 16.641-74.16 17.241-113.241zM301.799 104.561c32.439-15.561 67.119-27.921 103.44-36.081l-5.4-24.159c-25.239 5.64-50.040 13.161-74.121 22.761-11.88 4.68-23.439 9.801-34.68 15.24zM847.799 160.52c-28.239-25.959-59.4-48.279-93.159-66.921l-12.441 21.639c32.439 17.799 62.439 39.24 88.959 63.84l16.641-18.48zM638.039 914.039c37.8-9.6 73.8-23.64 107.439-41.199l-12.6-21.321c-31.44 16.521-65.241 29.52-100.839 38.679zM179.081 192.2c25.2-25.521 53.88-48 85.2-66.999l-13.080-21.159c-27.921 16.881-54 36.561-77.799 58.92-4.080 3.759-8.001 7.641-12 11.559l17.559 17.64zM958.28 643.4l-22.719-9.441c-13.959 33.321-32.121 64.56-54.159 93.279l19.8 14.76c23.079-30.321 42.441-63.441 56.961-98.601zM861.041 209.321c24.24 27 44.88 57 61.359 89.121l22.2-11.001c-17.4-34.080-39.159-65.799-65.079-94.641l-18.6 16.521zM963.2 329.441l-22.719 9.759c12.519 33.12 20.841 68.121 24.159 104.4l24.6-2.439c-3.519-38.241-12.201-75.681-26.040-111.72zM287.441 945.959l-38.76 17.001-13.281-41.001-23.4 7.599 17.52 53.88c1.161 3.321 3.6 6.039 6.681 7.521 1.641 0.681 3.321 1.041 5.040 1.041s3.36-0.36 4.92-1.041l51.321-22.521zM440.36 898.241c-3.12-0.639-6.279-1.080-9.48-1.641l-18.6-3.159c-2.439-0.36-4.8 0-6.879 0.921l-78.039 34.119 10.839 22.161 73.8-32.121c5.001 0.84 9.999 1.641 14.841 2.361 2.721 0.681 5.559 1.041 8.361 1.521zM589.481 899.039c-25.32 4.161-51.24 6.24-77.679 6.24-10.92 0-21-0.6-30.879-1.521l-0.759 24.6c10.041 0.96 20.439 1.599 31.641 1.599 27.921 0 55.32-2.319 81.921-6.639l-4.161-24.24zM92.681 316.64c14.799-33 34.080-63.921 57-92.079l-18.801-16.281c-24.399 29.799-44.64 62.28-60.321 97.080l-0.399 0.84zM853.28 760.4c-24.48 26.040-52.401 49.161-82.8 69.12l13.56 20.601c32.241-20.961 61.641-45.6 87.6-73.161zM70.799 614.039c-7.521-31.839-11.721-67.041-12.921-106.839h-24.639c1.2 42.84 5.799 80.199 13.8 113.721zM53.519 349.001c-11.88 36.399-18.72 74.121-20.4 112.521l24.6 1.2c1.68-36.921 8.361-72.639 19.479-106.479zM221.48 879.401l-23.601-72.6c-0.801-2.4-2.241-4.359-4.2-5.88-9.279-7.281-17.961-14.64-26.4-22.32l-16.881 17.841c7.761 7.359 16.32 14.481 25.161 21.639l22.44 68.679zM137.279 747.719c-23.64-27.639-41.481-57.96-54.201-92.601l-22.92 9.159c1.641 4.281 3.321 8.64 5.040 12.879 13.2 31.839 30.84 60.36 53.679 87z"></path>
</svg>
