<!-- Generated by IcoMoon.io -->
<svg version="1.1" xmlns="http://www.w3.org/2000/svg" width="1024" height="1024" viewBox="0 0 1024 1024">
<title>times-rectangle-o</title>
<g id="icomoon-ignore">
</g>
<path fill="#25d366" d="M702.601 594.576c-10.431-5.2-61.256-30.056-70.72-33.488-9.464-3.505-16.401-5.2-23.327 5.2-6.833 10.223-26.728 33.415-32.729 40.279-6.063 6.76-12.095 7.28-22.391 2.6-10.4-5.2-43.784-16.12-83.304-51.48-30.784-27.56-51.449-61.36-57.543-71.76-6.032-10.4-0.655-16.12 4.503-21.32 4.711-4.68 10.431-11.96 15.631-18.127 5.065-6.271 6.729-10.431 10.296-17.191 3.463-7.28 1.695-13-0.863-18.169-2.6-5.2-23.296-56.16-31.959-76.471-8.32-20.249-16.879-17.68-23.296-17.68-5.959-0.52-12.865-0.52-19.791-0.52s-18.127 2.569-27.633 12.449c-9.464 10.4-36.223 35.36-36.223 85.8s37.097 99.32 42.255 106.6c5.169 6.76 72.977 110.76 176.8 155.48 24.752 10.4 44.023 16.64 59.072 21.809 24.752 7.873 47.32 6.76 65.177 4.191 19.895-3.151 61.256-24.991 69.888-49.431 8.84-24.44 8.84-44.72 6.24-49.4-2.569-4.68-9.36-7.28-19.76-11.96zM514.111 850h-0.551c-61.36 0-122.169-16.64-175.24-47.84l-12.48-7.415-130 33.8 34.84-126.36-8.289-13c-34.32-54.631-52.551-117.551-52.551-182.343 0-188.76 154.44-342.68 344.656-342.68 92.009 0 178.36 35.88 243.391 100.88 65 64.449 100.849 150.8 100.849 242.32-0.135 188.729-154.617 342.68-344.417 342.68zM807.36 215.569c-79.040-76.409-183.040-119.569-293.8-119.569-228.176 0-413.951 184.912-414.055 412.287 0 72.665 19.032 143.52 55.297 206.097l-58.791 213.616 219.617-57.273c60.528 32.687 128.617 50.055 197.943 50.159h0.208c228.28 0 414.128-184.985 414.232-412.391 0-110.105-42.983-213.72-121.16-291.585z"></path>
</svg>
