<!-- Generated by IcoMoon.io -->
<svg version="1.1" xmlns="http://www.w3.org/2000/svg" width="1024" height="1024" viewBox="0 0 1024 1024">
<title></title>
<g id="icomoon-ignore">
</g>
<path fill="#f00" d="M925.67 303.457c-10.424-36.521-38.613-64.71-74.379-74.951l-0.765-0.187c-67.295-18.030-338.134-18.030-338.134-18.030s-270.151-0.362-338.134 18.030c-36.521 10.424-64.71 38.613-74.951 74.379l-0.187 0.765c-11.954 61.554-18.795 132.341-18.795 204.72 0 1.47 0.003 2.938 0.010 4.406l-0.001-0.226c-0.004 1.009-0.006 2.21-0.006 3.405 0 72.38 6.84 143.16 19.902 211.737l-1.109-7.025c10.424 36.521 38.613 64.71 74.379 74.951l0.765 0.187c67.227 18.066 338.134 18.066 338.134 18.066s270.116 0 338.134-18.066c36.521-10.424 64.71-38.613 74.951-74.379l0.187-0.765c11.462-60.28 18.018-129.627 18.018-200.496 0-2.676-0.011-5.35-0.026-8.022l0.003 0.409c0.015-2.489 0.030-5.431 0.030-8.375 0-70.878-6.558-140.232-19.098-207.482l1.071 6.962zM425.962 641.591v-258.853l225.424 129.626z"></path>
</svg>
